<svg xmlns="http://www.w3.org/2000/svg" version="1.0" width="24px" height="24px" viewBox="0 0 24 24" preserveAspectRatio="xMidYMid meet" transform="matrix(-1, 0, 0, 1, 0, 0)">

<g transform="translate(0.000000,512.000000) scale(0.100000,-0.100000)" fill="#ffffff" stroke="none">
<path d="M2898 4373 c-132 -137 -189 -259 -213 -459 -14 -109 30 -294 96 -406 17 -28 27 -54 22 -58 -4 -5 -233 -167 -508 -361 -293 -207 -508 -353 -520 -352 -11 1 -58 15 -105 32 -150 53 -292 64 -455 36 -168 -30 -308 -102 -437 -225 l-83 -79 412 -413 413 -413 -422 -422 -423 -423 78 -77 77 -78 423 423 422 422 412 -412 413 -413 61 60 c80 79 141 164 188 267 62 131 75 193 75 353 1 150 -10 211 -60 329 -14 33 -27 68 -27 76 -1 12 679 988 713 1023 4 5 27 -4 51 -19 117 -74 306 -114 447 -94 170 23 295 84 421 206 l76 73 -735 736 c-404 404 -738 735 -741 735 -3 0 -35 -30 -71 -67z m659 -815 c315 -315 573 -577 573 -581 0 -12 -98 -53 -158 -66 -112 -24 -229 -8 -342 46 -44 21 -112 82 -334 302 -162 160 -295 301 -317 335 -75 113 -99 265 -64 399 16 61 51 137 63 137 4 0 265 -258 579 -572z m-430 -430 c90 -90 163 -166 163 -171 0 -7 -660 -948 -681 -972 -6 -6 -130 111 -322 303 l-314 313 486 344 c267 189 490 344 496 344 5 1 83 -72 172 -161z m-1529 -551 c136 -48 170 -75 505 -407 176 -173 341 -343 368 -376 132 -165 177 -376 124 -579 -17 -64 -70 -178 -91 -196 -18 -15 -1498 1471 -1481 1488 23 22 119 66 185 84 102 29 291 22 390 -14z" fill="#ffffff"/>
</g>
</svg>